#!OML:ASF \\sashay\E\basketball\basketball\Project 1\Capture day 1\Session 1\Subject.ASF
:FULLY-SPECIFIED
:DEGREES
49
root -25.5461 12.015 -9.9931 11.0705 -62.3604 -13.2936
lowerback 39.7324 1.22191 0.325809
upperback 14.1121 0.50295 4.09971
thorax -3.64098 -0.530012 4.01961
lowerneck -7.14977 -6.07428 -11.7077
upperneck -22.8606 -5.15469 25.4086
head -4.17263 -3.6953 10.557
rclavicle 5.71506e-015 -3.51849e-014
rhumerus 9.06879 -41.5123 -49.12
rradius 70.0894
rwrist -29.6635
rhand -42.4593 65.8895
rfingers 7.12502
rthumb -15.3376 36.4783
lclavicle 5.71506e-015 -3.51849e-014
lhumerus -20.0756 -4.59553 63.3185
lradius 81.2994
lwrist 19.8181
lhand -29.2813 7.99676
lfingers 7.12502
lthumb -2.62336 37.9604
rfemur -34.3751 -20.1517 -9.02941
rtibia 59.2487
rfoot -11.0271 -3.05823
rtoes -56.3779
lfemur -59.7486 35.1867 -2.56024
ltibia 89.6595
lfoot -15.2738 4.78819
ltoes -26.3374
50
root -25.4373 12.1168 -9.7591 11.9164 -61.7468 -14.6234
lowerback 39.4599 1.34266 0.519152
upperback 13.8951 0.79572 4.54595
thorax -3.82609 -0.384431 4.28775
lowerneck -5.44632 -6.23715 -10.9128
upperneck -22.8608 -5.44799 25.4964
head -4.43802 -3.98539 10.4912
rclavicle 3.2367e-014 2.98177e-015
rhumerus 7.3325 -41.6908 -49.2461
rradius 69.8745
rwrist -29.0227
rhand -42.8344 67.3326
rfingers 7.12502
rthumb -15.6989 37.9495
lclavicle 3.2367e-014 2.98177e-015
lhumerus -19.9019 -6.61895 62.7161
lradius 83.5458
lwrist 19.9255
lhand -29.252 7.73324
lfingers 7.12502
lthumb -2.59512 37.6972
rfemur -31.4843 -18.6986 -9.37501
rtibia 55.1645
rfoot -7.94693 -2.29911
rtoes -55.7741
lfemur -59.4426 34.8584 -3.05007
ltibia 89.6249
lfoot -16.1365 4.4353
ltoes -25.7106
51
root -25.3233 12.239 -9.50838 12.3482 -61.3268 -15.4548
lowerback 39.3142 1.46128 0.629
upperback 13.5315 1.06888 4.87908
thorax -4.21143 -0.237989 4.48734
lowerneck -4.63031 -6.2742 -11.9819
upperneck -21.7162 -5.45586 27.1556
head -4.0751 -3.97863 11.2533
rclavicle -4.07509e-015 1.25234e-014
rhumerus 5.20233 -41.7111 -49.0478
rradius 69.8559
rwrist -28.3202
rhand -43.4929 68.0471
rfingers 7.12502
rthumb -16.333 38.7149
lclavicle -4.07509e-015 1.25234e-014
lhumerus -20.1413 -8.69122 62.2196
lradius 85.8157
lwrist 19.9157
lhand -29.6883 7.41038
lfingers 7.12502
lthumb -3.01648 37.3688
rfemur -28.8331 -17.0623 -9.79335
rtibia 51.1306
rfoot -3.70812 -0.645893
rtoes -54.1083
lfemur -58.8202 34.3114 -3.80682
ltibia 89.3905
lfoot -17.1166 4.42761
ltoes -23.432
52
root -25.2077 12.3616 -9.26282 13.4577 -61.0206 -16.8822
lowerback 38.6896 1.68812 0.622989
upperback 13.5057 1.39881 5.50866
thorax -4.09798 -0.0973215 5.04046
lowerneck -4.7006 -6.39924 -11.5751
upperneck -20.2954 -5.82975 26.886
head -3.59993 -4.07445 10.9382
rclavicle 2.38542e-014 -8.84592e-015
rhumerus 4.05586 -41.6955 -49.1076
rradius 69.8194
rwrist -28.4367
rhand -43.4134 66.7653
rfingers 7.12502
rthumb -16.2565 37.4268
lclavicle 2.38542e-014 -8.84592e-015
lhumerus -20.3287 -10.1721 62.0635
lradius 88.0007
lwrist 19.9271
lhand -29.9518 7.64252
lfingers 7.12502
lthumb -3.27088 37.5972
rfemur -26.6275 -15.1648 -9.70761
rtibia 47.2849
rfoot -0.703146 1.41506
rtoes -52.6985
lfemur -58.2726 33.715 -4.31083
ltibia 89.0052
lfoot -17.8774 4.99458
ltoes -22.2998
53
root -25.0865 12.4806 -9.0212 14.5856 -60.6544 -18.1823
lowerback 38.1267 1.82938 0.764657
upperback 13.3589 1.69028 6.09057
thorax -4.12971 0.0399567 5.48268
lowerneck -6.31339 -6.6933 -12.3119
upperneck -17.2772 -6.5231 27.1782
head -2.24268 -4.0932 10.8707
rclavicle 6.36111e-015 -1.33186e-014
rhumerus 2.87638 -41.3425 -48.9264
rradius 70.0178
rwrist -30.4879
rhand -42.4388 61.0228
rfingers 7.12502
rthumb -15.3178 31.6101
lclavicle 6.36111e-015 -1.33186e-014
lhumerus -20.8113 -11.6081 62.0041
lradius 90.2393
lwrist 19.8527
lhand -29.862 8.17722
lfingers 7.12502
lthumb -3.18418 38.1332
rfemur -24.7643 -13.5082 -9.50354
rtibia 43.7854
rfoot 2.27197 3.48972
rtoes -51.5944
lfemur -57.9155 32.8763 -4.94529
ltibia 88.5235
lfoot -18.4705 5.82357
ltoes -21.81
54
root -24.957 12.605 -8.77256 15.4905 -60.3179 -19.0237
lowerback 37.4632 1.83363 0.978885
upperback 13.1845 1.83569 6.4285
thorax -4.27053 0.13318 5.64875
lowerneck -4.90293 -7.02353 -8.79619
upperneck -17.586 -7.27854 24.3687
head -2.80703 -4.6263 9.26168
rclavicle 4.05521e-014 5.84427e-014
rhumerus 1.9006 -41.3359 -48.7725
rradius 69.7885
rwrist -30.6798
rhand -43.2627 62.913
rfingers 7.12502
rthumb -16.1113 33.5627
lclavicle 4.05521e-014 5.84427e-014
lhumerus -21.5931 -13.1568 61.6706
lradius 92.5625
lwrist 19.7568
lhand -30.0413 8.25773
lfingers 7.12502
lthumb -3.35736 38.211
rfemur -23.2981 -11.8939 -9.39313
rtibia 40.7352
rfoot 5.37508 5.61823
rtoes -50.9279
lfemur -57.7123 31.9408 -5.97059
ltibia 87.921
lfoot -19.1319 6.64399
ltoes -20.492
